<!-- Generator: Adobe Illustrator 18.0.0, SVG Export Plug-In  -->
<svg version="1.1"
	 xmlns="http://www.w3.org/2000/svg" xmlns:xlink="http://www.w3.org/1999/xlink" xmlns:a="http://ns.adobe.com/AdobeSVGViewerExtensions/3.0/"
	 x="0px" y="0px" width="10.9px" height="192.6px" viewBox="0 0 10.9 192.6" enable-background="new 0 0 10.9 192.6"
	 xml:space="preserve">
<defs>
</defs>
<g>
	<linearGradient id="SVGID_1_" gradientUnits="userSpaceOnUse" x1="5.4734" y1="9.5942" x2="5.4734" y2="194.9764">
		<stop  offset="0" style="stop-color:#F0F0F0"/>
		<stop  offset="1" style="stop-color:#FFFFFF"/>
	</linearGradient>
	<polygon fill="url(#SVGID_1_)" points="8.6,7.5 10.9,192.6 0,192.5 2.3,7.9 	"/>
	<linearGradient id="SVGID_2_" gradientUnits="userSpaceOnUse" x1="5.296" y1="0.2756" x2="5.296" y2="12.0046">
		<stop  offset="0" style="stop-color:#DEDEDE"/>
		<stop  offset="0.2303" style="stop-color:#D8D8D8"/>
		<stop  offset="0.5339" style="stop-color:#C7C7C7"/>
		<stop  offset="0.877" style="stop-color:#ACACAC"/>
		<stop  offset="1" style="stop-color:#A1A1A1"/>
	</linearGradient>
	<path fill="url(#SVGID_2_)" d="M2.7,0l6.3,0c0,0,0.8-0.1,0.9,0.7L9.5,7.3c0,0-0.1,1.4-0.2,1.9c-0.2,0.7-0.4,1.1-0.7,1.4l0-1.7
		c0,0,0-0.8-0.9-0.9c0,0-2.5-0.2-4.1,0.1c0,0-1.3,0.2-1.3,0.8v1.9l-0.8,0c0,0-0.8,0.1-0.7-1.4l0.8-8.5C1.6,0.9,1.6-0.1,2.7,0z"/>
	<path fill="#D1D1D1" d="M2.2,16.1c0,0,1.9-7.9,6.4-4.9l0-2.4c0,0-0.1-0.8-1.2-0.8c0,0-3.7-0.2-4.9,0.4c0,0-0.3,0.2-0.3,0.6
		L2.2,16.1z"/>
</g>
</svg>
