<!-- Generator: Adobe Illustrator 18.0.0, SVG Export Plug-In  -->
<svg version="1.1"
	 xmlns="http://www.w3.org/2000/svg" xmlns:xlink="http://www.w3.org/1999/xlink" xmlns:a="http://ns.adobe.com/AdobeSVGViewerExtensions/3.0/"
	 x="0px" y="0px" width="163.8px" height="133.4px" viewBox="0 0 163.8 133.4" enable-background="new 0 0 163.8 133.4"
	 xml:space="preserve">
<defs>
</defs>
<path fill="#F0F0F0" d="M79.7,85.2c0,0,0.3-5.1-0.4-8.3c0,0-2.5-9.1-2.6-11.3c0,0,0.4-12.7,0.9-18.1c0.5-5.3,1.7-45.3,1.7-45.3
	s0.9-3.1,1.7-1.9l3.2,66.4c0,0,0.2,17.9,0,18C84.1,84.8,79.7,85.2,79.7,85.2z"/>
<path fill="#F0F0F0" d="M85.8,86.7c0,0,4.3,2.8,8.8,4.6c0,0,8.4,2.9,10.5,3.8c2.1,0.9,12.6,7.8,24.6,15.7l32.4,20c0,0,3,2.3,1.3,2.6
	l-50.6-27c0,0-15.5-7.8-18-9.3c0,0-10.3-5.7-11.4-6.8C83.4,90.2,83.9,87.4,85.8,86.7z"/>
<path fill="#F0F0F0" d="M79.2,86.3c0,0-13,7.4-14.5,8c0,0-61.8,36.1-63.1,36.8c0,0-2.6,1.3-1.3,1.7c0,0,1.1,0.1,3-0.4
	c0,0,26.6-13.3,26.6-13.3s17.8-8.4,17.6-8.3c0,0,14.5-5.9,17.7-8.3c0,0,1.2-0.7,2.4-1.9c2.5-2.4,6.3-5.7,7.3-6.4
	c0,0,2.7-2.3,5.9-3.5C81,90.6,82.2,87,79.2,86.3z"/>
<radialGradient id="SVGID_1_" cx="-2410.1074" cy="-3256.1233" r="8.9865" gradientTransform="matrix(0.5279 0 0 0.5279 1356.424 1804.3226)" gradientUnits="userSpaceOnUse">
	<stop  offset="0" style="stop-color:#F2F2F2"/>
	<stop  offset="0.3186" style="stop-color:#EEEEEE"/>
	<stop  offset="0.6521" style="stop-color:#E1E1E1"/>
	<stop  offset="0.9914" style="stop-color:#CDCDCD"/>
	<stop  offset="1" style="stop-color:#CCCCCC"/>
</radialGradient>
<path fill="url(#SVGID_1_)" d="M78.8,86.3c0,0,1-2.6,3.4-2.4c0,0,2-0.1,3.1,2.3c0.1,0.1-1.1,1-2,3.4c-0.2,0.5,0.2,0.9,0.2,0.9
	s-1.8,0.4-2.5,0c0,0,0.1-0.6,0-0.8C80.9,89.6,80,87.8,78.8,86.3z"/>
<path fill="#E3E3E3" d="M94.2,92.6c0,0,7.3,3.9,8.7,4.6c2.2,1.2,12.2,9.7,15.3,12.1c0,0-3.2-1.8-7.8-4.1c-4.1-2.1-9.2-4.6-13.8-7.2
	c-6.5-3.7-12.1-6.7-13.1-7.7c0,0,0.9-3.3,1.9-3.2C85.8,87.1,91.2,91.2,94.2,92.6z"/>
<path fill="#E3E3E3" d="M79.7,87.8c0,0-7.2,4.1-12,7.2c0,0-20.8,11.8-30.9,20.8c0,0,5.3-2.5,9.9-4.7c2.2-1,4.6-1.9,6.5-2.7
	c2.9-1.3,5.3-2.4,6.2-2.8c0,0,6.6-2.9,9.3-6c0,0,7.6-7.5,12.2-8.8C80.9,90.7,80,88.4,79.7,87.8z"/>
</svg>
